# xmcd
#
# Track frame offsets: 
#        182
#        17950
#        35187
#        58112
#        71900
#        89485
#        103282
#        119985
#        135822
#        166655
#
# Disc length: 2928 seconds
#
# Revision: 0
# Processed by: cddbd v1.5.1PL2 Copyright (c) Steve Scherf et al.
# Submitted via: ExactAudioCopy v0.95a5
#
DISCID=950b6e0a
DTITLE=Giant's Chair - Purity and Control
DYEAR=1900
DGENRE=A Cappella
TTITLE0=Nondescriptionist Ethic
TTITLE1=Robbing Peter, Paying Paul
TTITLE2=Single File Accident
TTITLE3=Purity and Control
TTITLE4=1000 of Anything
TTITLE5=Work as Fuel
TTITLE6=The Speech
TTITLE7=Blind in One Eye
TTITLE8=The Ballad of Jody Hamilton
TTITLE9=Muelbach Pigeon
EXTD=
EXTT0=
EXTT1=
EXTT2=
EXTT3=
EXTT4=
EXTT5=
EXTT6=
EXTT7=
EXTT8=
EXTT9=
PLAYORDER=
